<svg id="Layer_1" data-name="Layer 1" xmlns="http://www.w3.org/2000/svg" xmlns:xlink="http://www.w3.org/1999/xlink" viewBox="0 0 407.46 168.41"><defs><style>.cls-1,.cls-2{fill-rule:evenodd;}.cls-1{fill:url(#linear-gradient);}.cls-2,.cls-3{fill:#393c90;}.cls-3{font-size:86.76px;font-family:SuperaGothic-ExtraBold, Supera Gothic;font-weight:800;letter-spacing:0.11em;}.cls-4{letter-spacing:0.11em;}.cls-5{letter-spacing:0.1em;}</style><linearGradient id="linear-gradient" x1="51.17" y1="48.4" x2="448.11" y2="48.4" gradientUnits="userSpaceOnUse"><stop offset="0" stop-color="#767c84"/><stop offset="0.19" stop-color="#70767f"/><stop offset="0.43" stop-color="#5f6670"/><stop offset="0.72" stop-color="#434c57"/><stop offset="1" stop-color="#202a38"/></linearGradient></defs><path class="cls-1" d="M448.11,81.89c-83.25-52.28-175-82.54-260.4-26C157.13,78.62,100.65,43.59,51.17,86.77,87.7,31.28,143,66.12,184.6,39.8,277.69-19.08,363.3,17,448.11,81.89" transform="translate(-46.77 -10.02)"/><path class="cls-2" d="M414.07,51.11c24-10.89,40.22-16.11,40.16-16.47-6.77,13.73-17.53,23.09-23.82,27.58q-8.1-5.73-16.34-11.11" transform="translate(-46.77 -10.02)"/><path class="cls-2" d="M199.18,60.35c49.07,7,100.23,10.6,155.4,10.91C309.67,78,254,77.53,186.21,69.74c9.44-6.86,13.53-9.74,13-9.39" transform="translate(-46.77 -10.02)"/><text class="cls-3" transform="translate(0 145.68)">R<tspan class="cls-4" x="64.12" y="0">ideli</tspan><tspan class="cls-5" x="292.9" y="0">s</tspan><tspan class="cls-4" x="342.17" y="0">t</tspan></text></svg>